<svg width="202" height="58" viewBox="0 0 202 58" fill="none" xmlns="http://www.w3.org/2000/svg">
<g clip-path="url(#clip0_1458_601)">
<path d="M25.559 54.8181C25.2776 54.8181 25.0211 54.7683 24.7916 54.6698C24.5603 54.5708 24.3689 54.4311 24.2145 54.2508C24.0611 54.07 23.9545 53.8471 23.8948 53.5807C23.8515 53.4257 23.8311 53.2583 23.8311 53.077C23.8311 52.9574 23.8397 52.8282 23.8562 52.691L24.7399 46.4761H25.3541L25.2263 48.0109H26.6607L26.5709 48.5907H25.1361L24.5603 52.691C24.5437 52.7937 24.5356 52.8885 24.5356 52.9741C24.5356 53.2664 24.6069 53.5204 24.7533 53.7347C24.9399 54.0188 25.2521 54.1647 25.6872 54.1728C25.7385 54.1728 25.7898 54.1713 25.8416 54.1671C25.892 54.1628 25.948 54.1561 26.0078 54.148L25.9181 54.7923C25.8582 54.8005 25.7984 54.8075 25.7385 54.8114C25.6787 54.8157 25.6188 54.8181 25.559 54.8181Z" fill="#FEFEFE"/>
<path d="M30.3236 51.5688C30.4766 51.5688 30.6266 51.5602 30.7711 51.5429C31.0357 51.5085 31.2765 51.4354 31.4947 51.324C31.7127 51.212 31.8956 51.0551 32.0452 50.8532C32.1949 50.6514 32.2957 50.3917 32.346 50.0736C32.354 49.9956 32.3588 49.9182 32.3588 49.8412C32.3588 49.678 32.3337 49.5312 32.2823 49.4029C32.2059 49.2222 32.0923 49.072 31.9435 48.9514C31.7939 48.8309 31.6167 48.7429 31.412 48.6874C31.2068 48.6314 30.9925 48.6036 30.7711 48.6036C30.5411 48.6036 30.3127 48.6358 30.0865 48.6998C29.86 48.7644 29.6528 48.8634 29.4647 48.9968C29.277 49.1299 29.1178 49.2953 28.9848 49.4928C28.8528 49.6909 28.7696 49.9233 28.7354 50.1888L28.581 51.2076C28.7696 51.2846 28.9848 51.356 29.2276 51.4205C29.4723 51.4852 29.726 51.5263 29.9906 51.5429C30.1007 51.5602 30.2124 51.5688 30.3236 51.5688ZM28.3762 52.8579C28.3762 53.0216 28.4066 53.1674 28.4666 53.2965C28.543 53.4683 28.6579 53.6123 28.8124 53.7285C28.9658 53.8443 29.1454 53.9284 29.3497 53.98C29.5549 54.0313 29.7677 54.0571 29.9906 54.0571C30.3488 54.0571 30.697 53.9887 31.0333 53.851C31.3712 53.7137 31.63 53.4941 31.8082 53.1932L32.3974 53.5156C32.2696 53.7304 32.1113 53.9198 31.9241 54.083C31.7364 54.2465 31.5302 54.3814 31.3088 54.4886C31.087 54.5967 30.8551 54.6781 30.6106 54.7339C30.3678 54.7894 30.1269 54.8177 29.8874 54.8177C29.5715 54.8177 29.2685 54.7727 28.9787 54.6823C28.6879 54.5924 28.4385 54.457 28.2294 54.2767C28.0195 54.0958 27.8603 53.8682 27.7492 53.5932C27.6812 53.4038 27.647 53.1975 27.647 52.9742C27.647 52.8709 27.6556 52.7595 27.6727 52.6389L28.018 50.1243C28.0689 49.7464 28.1886 49.4178 28.3762 49.1384C28.5643 48.8591 28.7906 48.6247 29.0556 48.4352C29.3202 48.2469 29.6096 48.1071 29.9259 48.0163C30.2419 47.9268 30.5582 47.8813 30.8741 47.8813C31.1891 47.8813 31.4909 47.9268 31.7773 48.0163C32.0619 48.1071 32.3098 48.2426 32.5194 48.4229C32.728 48.6036 32.8847 48.8309 32.9864 49.1064C33.0548 49.2867 33.0894 49.4928 33.0894 49.7248C33.0894 49.8368 33.0815 49.9526 33.0633 50.0736C33.0125 50.4514 32.899 50.7762 32.7242 51.047C32.5498 51.3177 32.335 51.5411 32.0837 51.7172C31.8324 51.8932 31.5507 52.0247 31.2385 52.1103C30.9275 52.1964 30.6086 52.2433 30.2851 52.2524H30.1819C29.9008 52.2524 29.6196 52.2223 29.3369 52.1619C29.03 52.1017 28.7477 52.0069 28.4917 51.8779L28.3901 52.6389C28.381 52.7163 28.3762 52.7896 28.3762 52.8579Z" fill="#FEFEFE"/>
<path d="M37.5835 48.6036C37.3615 48.6036 37.1388 48.6314 36.9178 48.6874C36.696 48.7429 36.4898 48.8294 36.3036 48.9448C36.1154 49.0614 35.9572 49.2097 35.8294 49.3901C35.7012 49.5704 35.6195 49.7808 35.5862 50.0215L35.2271 52.6389C35.2186 52.7169 35.2152 52.7896 35.2152 52.8584C35.2152 53.0043 35.2398 53.1415 35.2917 53.2708C35.3682 53.4515 35.4808 53.5998 35.6304 53.7156C35.78 53.8318 35.9596 53.9174 36.1682 53.9734C36.3776 54.0294 36.5928 54.057 36.8148 54.057C37.0024 54.057 37.1957 54.0379 37.392 53.9993C37.5882 53.9609 37.7692 53.9026 37.9355 53.8251C38.1018 53.748 38.2514 53.6468 38.3849 53.5219C38.516 53.3975 38.6205 53.2449 38.6984 53.0645L39.3127 53.3611C39.193 53.6103 39.0372 53.8251 38.8453 54.0054C38.6528 54.1863 38.4418 54.3365 38.2105 54.457C37.9811 54.5776 37.7364 54.6679 37.4812 54.7277C37.2252 54.788 36.9691 54.8181 36.7131 54.8181C36.4053 54.8181 36.1074 54.7727 35.8157 54.6823C35.5264 54.5929 35.2759 54.457 35.0675 54.2767C34.8583 54.0958 34.6978 53.8725 34.5871 53.6061C34.5183 53.4171 34.4845 53.211 34.4845 52.9875C34.4845 52.8842 34.4931 52.7718 34.5097 52.6522L34.8688 50.0478C34.9207 49.6866 35.038 49.3704 35.2209 49.0998C35.4043 48.8294 35.627 48.6036 35.8869 48.4229C36.1478 48.2426 36.4351 48.1071 36.7511 48.0163C37.067 47.9268 37.3786 47.8813 37.6865 47.8813C38.1473 47.8813 38.5702 47.9761 38.953 48.165C39.3374 48.3544 39.6153 48.6424 39.7869 49.0288L39.1331 49.4158C39.0214 49.1408 38.8239 48.9366 38.5378 48.8031C38.2514 48.6702 37.9331 48.6036 37.5835 48.6036Z" fill="#FEFEFE"/>
<path d="M46.6246 49.6995C46.6246 49.8028 46.6151 49.9142 46.5985 50.0348L45.958 54.6889H45.2416L45.8816 50.0348C45.8896 49.9568 45.8943 49.884 45.8943 49.8151C45.8943 49.6692 45.8692 49.5311 45.8179 49.4028C45.7415 49.2221 45.6274 49.0718 45.4778 48.9513C45.329 48.8307 45.1529 48.7427 44.9528 48.6873C44.7524 48.6313 44.5447 48.6036 44.3319 48.6036C43.9737 48.6036 43.623 48.6466 43.2819 48.7323C42.9404 48.8184 42.6625 48.9045 42.4497 48.9901L41.6686 54.6889H40.9517L41.822 48.4103C42.2582 48.264 42.6929 48.1396 43.1286 48.0358C43.5646 47.933 43.9989 47.8813 44.435 47.8813C44.7415 47.8899 45.036 47.9391 45.3186 48.0295C45.5998 48.1194 45.8426 48.2534 46.0473 48.4294C46.2526 48.6055 46.407 48.8265 46.5087 49.0928C46.5852 49.2737 46.6246 49.476 46.6246 49.6995Z" fill="#FEFEFE"/>
<path d="M51.4649 48.6036C51.2422 48.6036 51.0203 48.6314 50.7994 48.6874C50.5765 48.7429 50.3737 48.8294 50.1903 48.9448C50.0065 49.0614 49.8483 49.2097 49.7163 49.3901C49.5836 49.5704 49.5011 49.7895 49.4663 50.0478L49.0953 52.6001C49.0867 52.6776 49.082 52.7508 49.082 52.8197C49.082 52.9833 49.1081 53.1287 49.1594 53.2577C49.245 53.4381 49.3647 53.5889 49.5177 53.7089C49.6712 53.8294 49.8507 53.9174 50.0554 53.9734C50.2602 54.0294 50.4735 54.057 50.6963 54.057C50.9092 54.057 51.1272 54.0294 51.3486 53.9734C51.5715 53.9174 51.7762 53.8294 51.9643 53.7089C52.1505 53.5889 52.311 53.4381 52.4446 53.2577C52.5762 53.077 52.6598 52.8584 52.6935 52.6001L53.0645 50.0478C53.0731 49.9702 53.0778 49.8976 53.0778 49.8281C53.0778 49.665 53.0527 49.5187 53.0009 49.3901C52.9164 49.2097 52.7967 49.0614 52.6427 48.9448C52.4883 48.8294 52.3078 48.7429 52.0983 48.6874C51.8887 48.6314 51.6778 48.6036 51.4649 48.6036ZM51.5666 47.8813C51.8825 47.8813 52.1832 47.9268 52.4693 48.0163C52.7557 48.1071 53.0047 48.2426 53.219 48.4229C53.4323 48.6036 53.5905 48.8309 53.6917 49.1064C53.77 49.2953 53.808 49.5019 53.808 49.7248C53.808 49.8281 53.7995 49.9401 53.7819 50.0601L53.4109 52.6522C53.3592 53.0125 53.2417 53.3287 53.0585 53.5998C52.8754 53.8706 52.6527 54.0958 52.3928 54.2767C52.1315 54.457 51.847 54.5929 51.5343 54.6823C51.2227 54.7727 50.9092 54.8181 50.5932 54.8181C50.2782 54.8181 49.9738 54.7727 49.6844 54.6823C49.3946 54.5929 49.1442 54.457 48.9347 54.2767C48.7262 54.0958 48.5704 53.8725 48.4678 53.6061C48.3908 53.4171 48.3528 53.211 48.3528 52.9875C48.3528 52.8842 48.3613 52.7718 48.378 52.6522L48.749 50.0601C48.8008 49.6995 48.9157 49.3814 49.0953 49.1064C49.2748 48.8309 49.4962 48.6036 49.7609 48.4229C50.0255 48.2426 50.3139 48.1071 50.625 48.0163C50.9368 47.9268 51.2507 47.8813 51.5666 47.8813Z" fill="#FEFEFE"/>
<path d="M55.524 53.1548C55.524 53.0174 55.5368 52.8668 55.562 52.7032L56.5359 45.5474H57.2533L56.2794 52.7032C56.2627 52.8156 56.2533 52.9228 56.2533 53.0255C56.2533 53.3183 56.3179 53.5542 56.4457 53.7345C56.6252 53.976 56.9402 54.0956 57.3935 54.0956L57.2913 54.8179C56.6423 54.8179 56.1678 54.6328 55.8703 54.2635C55.6389 53.9804 55.524 53.6106 55.524 53.1548Z" fill="#FEFEFE"/>
<path d="M62.0294 48.6036C61.8065 48.6036 61.5851 48.6314 61.3637 48.6874C61.141 48.7429 60.9386 48.8294 60.7552 48.9448C60.5714 49.0614 60.4131 49.2097 60.281 49.3901C60.1481 49.5704 60.0654 49.7895 60.0312 50.0478L59.6597 52.6001C59.6512 52.6776 59.6463 52.7508 59.6463 52.8197C59.6463 52.9833 59.673 53.1287 59.7243 53.2577C59.8093 53.4381 59.929 53.5889 60.082 53.7089C60.2359 53.8294 60.4156 53.9174 60.6198 53.9734C60.8251 54.0294 61.0378 54.057 61.2607 54.057C61.474 54.057 61.6915 54.0294 61.9135 53.9734C62.1362 53.9174 62.3405 53.8294 62.5286 53.7089C62.7154 53.5889 62.8759 53.4381 63.009 53.2577C63.1405 53.077 63.2247 52.8584 63.2578 52.6001L63.629 50.0478C63.6375 49.9702 63.6427 49.8976 63.6427 49.8281C63.6427 49.665 63.617 49.5187 63.5653 49.3901C63.4807 49.2097 63.361 49.0614 63.2076 48.9448C63.0531 48.8294 62.8721 48.7429 62.6626 48.6874C62.4536 48.6314 62.2422 48.6036 62.0294 48.6036ZM62.1311 47.8813C62.4474 47.8813 62.7481 47.9268 63.0336 48.0163C63.3202 48.1071 63.5691 48.2426 63.7833 48.4229C63.9972 48.6036 64.1548 48.8309 64.2565 49.1064C64.3344 49.2953 64.3729 49.5019 64.3729 49.7248C64.3729 49.8281 64.3644 49.9401 64.3464 50.0601L63.9752 52.6522C63.9235 53.0125 63.8062 53.3287 63.6228 53.5998C63.4399 53.8706 63.217 54.0958 62.9571 54.2767C62.6964 54.457 62.4113 54.5929 62.0988 54.6823C61.7875 54.7727 61.474 54.8181 61.1576 54.8181C60.8426 54.8181 60.5385 54.7727 60.2488 54.6823C59.9594 54.5929 59.7086 54.457 59.4995 54.2767C59.2905 54.0958 59.1351 53.8725 59.0321 53.6061C58.9556 53.4171 58.9171 53.211 58.9171 52.9875C58.9171 52.8842 58.9257 52.7718 58.9423 52.6522L59.3138 50.0601C59.3656 49.6995 59.4802 49.3814 59.6597 49.1064C59.8397 48.8309 60.0607 48.6036 60.3253 48.4229C60.5903 48.2426 60.8787 48.1071 61.1899 48.0163C61.5015 47.9268 61.8151 47.8813 62.1311 47.8813Z" fill="#FEFEFE"/>
<path d="M68.9945 48.5777C68.7732 48.5777 68.5527 48.6078 68.3347 48.6676C68.1171 48.728 67.9195 48.8183 67.7399 48.9388C67.5598 49.0589 67.4068 49.2073 67.279 49.3837C67.1508 49.5598 67.0743 49.7684 67.0477 50.0089L66.6767 52.6522C66.6601 52.7468 66.6511 52.8367 66.6511 52.9228C66.6511 53.0521 66.6686 53.1673 66.7028 53.2706C66.7712 53.46 66.8753 53.6194 67.0168 53.748C67.157 53.8771 67.3303 53.9733 67.5352 54.0379C67.7399 54.1025 67.966 54.1345 68.214 54.1345C68.5119 54.1259 68.8226 54.0876 69.1423 54.0187C69.4616 53.9498 69.7756 53.8427 70.0829 53.6964L70.7623 48.9131C70.5742 48.827 70.3229 48.7494 70.0064 48.6811C69.6905 48.6122 69.3528 48.5777 68.9945 48.5777ZM67.7912 56.8548C68.0297 56.8548 68.2629 56.8246 68.4895 56.7648C68.7143 56.7046 68.9218 56.617 69.1095 56.5004C69.2977 56.3846 69.4559 56.2362 69.5837 56.0555C69.7119 55.8752 69.797 55.6604 69.8397 55.4112L69.9936 54.4181C69.6953 54.5646 69.3922 54.6679 69.0844 54.7277C68.7769 54.7879 68.47 54.818 68.1627 54.818C67.8462 54.818 67.5455 54.7731 67.26 54.6823C66.9736 54.5928 66.7255 54.4569 66.5171 54.2766C66.3081 54.0957 66.1474 53.8724 66.0367 53.6059C65.9679 53.4171 65.9341 53.2152 65.9341 52.9999C65.9341 52.8884 65.9427 52.776 65.9593 52.6645L66.3184 50.0218C66.3703 49.6692 66.4852 49.3598 66.6648 49.0934C66.843 48.827 67.0586 48.6036 67.3113 48.4228C67.5626 48.2424 67.8425 48.1071 68.1494 48.0167C68.4568 47.9268 68.7651 47.8813 69.0716 47.8813C69.3708 47.8813 69.7457 47.9243 70.1979 48.0104C70.6507 48.0961 71.0948 48.2386 71.531 48.4356L70.5443 55.3978C70.4924 55.759 70.3799 56.0731 70.2055 56.3396C70.0293 56.606 69.816 56.8246 69.5646 56.9973C69.3133 57.169 69.0306 57.2957 68.7196 57.3776C68.4083 57.4589 68.0896 57.5001 67.765 57.5001C67.3389 57.5001 66.9413 57.4263 66.5746 57.2804C66.2073 57.1345 65.917 56.9237 65.7042 56.6486L66.2538 56.1971C66.3906 56.4122 66.5998 56.5759 66.8815 56.6874C67.1636 56.7988 67.4667 56.8548 67.7912 56.8548Z" fill="#FEFEFE"/>
<path d="M74.6164 45.793C74.7861 45.793 74.9229 45.8532 75.0255 45.9733C75.111 46.0679 75.1543 46.1794 75.1543 46.3086C75.1543 46.3425 75.149 46.3779 75.1409 46.4114C75.1238 46.5841 75.0473 46.7295 74.911 46.85C74.7742 46.97 74.6203 47.0304 74.4497 47.0304C74.2786 47.0304 74.1424 46.97 74.0392 46.85C73.9542 46.7471 73.9123 46.6266 73.9123 46.4894V46.4114C73.9371 46.2397 74.0189 46.0938 74.1552 45.9733C74.2914 45.8532 74.4454 45.793 74.6164 45.793ZM74.6929 48.0109L73.7575 54.6894H73.0406L73.9756 48.0109H74.6929Z" fill="#FEFEFE"/>
<path d="M79.5843 48.6036C79.3282 48.6036 79.0746 48.6271 78.8228 48.674C78.5715 48.7219 78.3401 48.8031 78.1306 48.9198C77.9225 49.0351 77.7476 49.1878 77.6061 49.3772C77.4649 49.5666 77.3771 49.7986 77.3439 50.0736L76.998 52.5742C76.9894 52.6603 76.9847 52.7417 76.9847 52.8197C76.9847 52.9742 77.0061 53.1162 77.0493 53.2449C77.1178 53.4257 77.2194 53.5779 77.3562 53.7026C77.4925 53.8275 77.6574 53.9174 77.8493 53.9734C78.0422 54.0294 78.2445 54.057 78.4574 54.057C78.6455 54.057 78.8361 54.0404 79.0275 54.0054C79.219 53.9715 79.4047 53.9217 79.5843 53.8572C79.7638 53.7927 79.9326 53.7156 80.0907 53.6252C80.2475 53.5353 80.3834 53.4339 80.4945 53.3224L81.1087 48.9514C80.9287 48.8566 80.705 48.7754 80.4357 48.707C80.1677 48.6381 79.8835 48.6036 79.5843 48.6036ZM78.3291 54.8181C78.0313 54.8181 77.7476 54.7746 77.4779 54.689C77.2084 54.6033 76.9742 54.4694 76.7742 54.2896C76.5728 54.1093 76.426 53.8811 76.332 53.6061C76.272 53.4257 76.2426 53.2276 76.2426 53.0125C76.2426 52.8929 76.2506 52.7637 76.2677 52.6264L76.6137 50.086C76.6735 49.6737 76.797 49.3255 76.9847 49.0423C77.1728 48.7582 77.4051 48.531 77.6831 48.3582C77.9605 48.1866 78.2659 48.0641 78.599 47.9914C78.9316 47.9182 79.2731 47.8813 79.6228 47.8813C80.0585 47.8813 80.4765 47.9373 80.8774 48.0493C81.2784 48.1607 81.6248 48.2899 81.9155 48.4352L81.0574 54.689H80.4166L80.4047 54.0188C80.1653 54.2508 79.857 54.4421 79.4826 54.5929C79.1064 54.7426 78.7224 54.8181 78.3291 54.8181Z" fill="#FEFEFE"/>
<path d="M89.5978 51.5688C89.7522 51.5688 89.9008 51.5602 90.0467 51.5429C90.3104 51.5085 90.5522 51.4354 90.7703 51.324C90.9883 51.212 91.1717 51.0551 91.3209 50.8532C91.4692 50.6514 91.5698 50.3917 91.6216 50.0736C91.6297 49.9956 91.6344 49.9182 91.6344 49.8412C91.6344 49.678 91.6083 49.5312 91.557 49.4029C91.4805 49.2222 91.3679 49.072 91.2178 48.9514C91.0687 48.8309 90.8915 48.7429 90.6862 48.6874C90.4814 48.6314 90.2686 48.6036 90.0467 48.6036C89.8159 48.6036 89.5873 48.6358 89.3607 48.6998C89.1347 48.7644 88.9276 48.8634 88.7404 48.9968C88.5528 49.1299 88.3922 49.2953 88.2606 49.4928C88.1276 49.6909 88.0449 49.9233 88.0103 50.1888L87.8573 51.2076C88.0449 51.2846 88.2606 51.356 88.5034 51.4205C88.7466 51.4852 89.0003 51.5263 89.2654 51.5429C89.3765 51.5602 89.4866 51.5688 89.5978 51.5688ZM87.652 52.8579C87.652 53.0216 87.6825 53.1674 87.7423 53.2965C87.8188 53.4683 87.9338 53.6123 88.0867 53.7285C88.2416 53.8443 88.4202 53.9284 88.6245 53.98C88.8306 54.0313 89.0436 54.0571 89.2654 54.0571C89.6244 54.0571 89.9717 53.9887 90.309 53.851C90.6458 53.7137 90.9042 53.4941 91.0839 53.1932L91.6729 53.5156C91.5451 53.7304 91.3869 53.9198 91.1988 54.083C91.0112 54.2465 90.8059 54.3814 90.5845 54.4886C90.3617 54.5967 90.1294 54.6781 89.8862 54.7339C89.6434 54.7894 89.4016 54.8177 89.1633 54.8177C88.8473 54.8177 88.5442 54.7727 88.2535 54.6823C87.9637 54.5924 87.7133 54.457 87.5052 54.2767C87.2953 54.0958 87.1346 53.8682 87.0249 53.5932C86.9555 53.4038 86.9219 53.1975 86.9219 52.9742C86.9219 52.8709 86.9304 52.7595 86.9471 52.6389L87.2929 50.1243C87.3446 49.7464 87.4643 49.4178 87.652 49.1384C87.8392 48.8591 88.0653 48.6247 88.33 48.4352C88.5951 48.2469 88.8859 48.1071 89.2017 48.0163C89.5165 47.9268 89.8324 47.8813 90.1489 47.8813C90.4648 47.8813 90.7655 47.9268 91.052 48.0163C91.3375 48.1071 91.5859 48.2426 91.7941 48.4229C92.0031 48.6036 92.1593 48.8309 92.262 49.1064C92.3304 49.2867 92.3636 49.4928 92.3636 49.7248C92.3636 49.8368 92.3555 49.9526 92.339 50.0736C92.2871 50.4514 92.1736 50.7762 91.9988 51.047C91.824 51.3177 91.6107 51.5411 91.3594 51.7172C91.1067 51.8932 90.8253 52.0247 90.5142 52.1103C90.2026 52.1964 89.8843 52.2433 89.5597 52.2524H89.4577C89.1751 52.2524 88.8943 52.2223 88.6126 52.1619C88.3048 52.1017 88.0236 52.0069 87.767 51.8779L87.6644 52.6389C87.6558 52.7163 87.652 52.7896 87.652 52.8579Z" fill="#FEFEFE"/>
<path d="M96.8325 47.8813C97.242 47.8813 97.6231 47.9502 97.9723 48.0876C98.3225 48.2248 98.6003 48.4573 98.8046 48.784C99.0949 48.4831 99.4236 48.2579 99.7918 48.1071C100.158 47.957 100.517 47.8813 100.866 47.8813C101.199 47.8813 101.509 47.9268 101.795 48.0163C102.081 48.1071 102.324 48.2469 102.525 48.4352C102.725 48.6247 102.872 48.861 102.967 49.1452C103.027 49.3255 103.057 49.5231 103.057 49.7382C103.057 49.8588 103.048 49.9871 103.03 50.1243L102.403 54.689H101.674L102.301 50.1243C102.309 50.0306 102.313 49.9439 102.313 49.8669C102.313 49.7038 102.293 49.557 102.249 49.4283C102.181 49.2313 102.077 49.072 101.936 48.9514C101.795 48.8309 101.625 48.7429 101.424 48.6874C101.224 48.6314 101.012 48.6036 100.79 48.6036C100.61 48.6036 100.425 48.629 100.233 48.6806C100.041 48.7319 99.8606 48.8099 99.6944 48.9126C99.5281 49.016 99.3832 49.1452 99.2597 49.2992C99.1353 49.4542 99.0607 49.6349 99.0359 49.8412L98.3571 54.689H97.653L98.3305 49.8412C98.339 49.7895 98.3437 49.7426 98.3437 49.6995C98.3437 49.5445 98.3101 49.4073 98.2421 49.2867C98.1556 49.1318 98.0321 49.0031 97.8697 48.8998C97.7081 48.7964 97.5176 48.7219 97.3005 48.674C97.083 48.6271 96.8592 48.6036 96.6278 48.6036C96.3551 48.6036 96.0924 48.6358 95.8401 48.6998C95.5889 48.7644 95.3774 48.8566 95.2064 48.9772L94.4125 54.689H93.6824L94.5541 48.4487C94.8691 48.2855 95.2282 48.1502 95.6293 48.0422C96.0307 47.9349 96.4316 47.8813 96.8325 47.8813Z" fill="#FEFEFE"/>
<path d="M111.623 48.6036C111.367 48.6036 111.113 48.6271 110.861 48.674C110.61 48.7219 110.379 48.8031 110.169 48.9198C109.961 49.0351 109.786 49.1878 109.645 49.3772C109.504 49.5666 109.416 49.7986 109.382 50.0736L109.037 52.5742C109.028 52.6603 109.023 52.7417 109.023 52.8197C109.023 52.9742 109.045 53.1162 109.088 53.2449C109.156 53.4257 109.258 53.5779 109.395 53.7026C109.531 53.8275 109.696 53.9174 109.888 53.9734C110.081 54.0294 110.283 54.057 110.496 54.057C110.684 54.057 110.875 54.0404 111.066 54.0054C111.258 53.9715 111.443 53.9217 111.623 53.8572C111.803 53.7927 111.971 53.7156 112.129 53.6252C112.286 53.5353 112.421 53.4339 112.533 53.3224L113.147 48.9514C112.967 48.8566 112.744 48.7754 112.474 48.707C112.206 48.6381 111.922 48.6036 111.623 48.6036ZM110.368 54.8181C110.069 54.8181 109.786 54.7746 109.516 54.689C109.247 54.6033 109.012 54.4694 108.812 54.2896C108.611 54.1093 108.464 53.8811 108.371 53.6061C108.311 53.4257 108.281 53.2276 108.281 53.0125C108.281 52.8929 108.289 52.7637 108.306 52.6264L108.652 50.086C108.712 49.6737 108.836 49.3255 109.023 49.0423C109.211 48.7582 109.444 48.531 109.721 48.3582C109.999 48.1866 110.304 48.0641 110.638 47.9914C110.97 47.9182 111.312 47.8813 111.661 47.8813C112.097 47.8813 112.515 47.9373 112.916 48.0493C113.317 48.1607 113.663 48.2899 113.954 48.4352L113.096 54.689H112.455L112.443 54.0188C112.204 54.2508 111.896 54.4421 111.521 54.5929C111.145 54.7426 110.761 54.8181 110.368 54.8181Z" fill="#FEFEFE"/>
<path d="M118.576 48.5777C118.355 48.5777 118.134 48.6078 117.916 48.6676C117.699 48.728 117.501 48.8183 117.321 48.9388C117.141 49.0589 116.988 49.2073 116.861 49.3837C116.732 49.5598 116.656 49.7684 116.629 50.0089L116.258 52.6522C116.242 52.7468 116.232 52.8367 116.232 52.9228C116.232 53.0521 116.25 53.1673 116.284 53.2706C116.353 53.46 116.457 53.6194 116.598 53.748C116.738 53.8771 116.912 53.9733 117.117 54.0379C117.321 54.1025 117.548 54.1345 117.796 54.1345C118.093 54.1259 118.404 54.0876 118.724 54.0187C119.043 53.9498 119.357 53.8427 119.664 53.6964L120.344 48.9131C120.156 48.827 119.904 48.7494 119.588 48.6811C119.272 48.6122 118.934 48.5777 118.576 48.5777ZM117.373 56.8548C117.611 56.8548 117.844 56.8246 118.071 56.7648C118.296 56.7046 118.503 56.617 118.691 56.5004C118.879 56.3846 119.037 56.2362 119.165 56.0555C119.293 55.8752 119.378 55.6604 119.421 55.4112L119.575 54.4181C119.277 54.5646 118.974 54.6679 118.666 54.7277C118.358 54.7879 118.052 54.818 117.744 54.818C117.428 54.818 117.127 54.7731 116.842 54.6823C116.555 54.5928 116.307 54.4569 116.099 54.2766C115.889 54.0957 115.729 53.8724 115.618 53.6059C115.549 53.4171 115.516 53.2152 115.516 52.9999C115.516 52.8884 115.524 52.776 115.541 52.6645L115.9 50.0218C115.952 49.6692 116.067 49.3598 116.246 49.0934C116.425 48.827 116.64 48.6036 116.893 48.4228C117.144 48.2424 117.424 48.1071 117.731 48.0167C118.039 47.9268 118.347 47.8813 118.653 47.8813C118.952 47.8813 119.327 47.9243 119.779 48.0104C120.232 48.0961 120.676 48.2386 121.113 48.4356L120.126 55.3978C120.074 55.759 119.961 56.0731 119.787 56.3396C119.611 56.606 119.397 56.8246 119.146 56.9973C118.895 57.169 118.612 57.2957 118.301 57.3776C117.99 57.4589 117.671 57.5001 117.347 57.5001C116.921 57.5001 116.523 57.4263 116.156 57.2804C115.789 57.1345 115.499 56.9237 115.286 56.6486L115.835 56.1971C115.972 56.4122 116.181 56.5759 116.463 56.6874C116.745 56.7988 117.048 56.8548 117.373 56.8548Z" fill="#FEFEFE"/>
<path d="M125.901 47.8813C125.977 47.8813 126.056 47.8832 126.138 47.8876C126.219 47.8923 126.302 47.8986 126.387 47.9072L126.285 48.629C126.14 48.6036 125.999 48.5902 125.862 48.5902C125.683 48.5902 125.489 48.6146 125.279 48.6615C125.071 48.7084 124.872 48.7902 124.684 48.9064C124.496 49.0227 124.332 49.1728 124.19 49.3575C124.05 49.5426 123.963 49.7683 123.929 50.0344L123.301 54.689H122.584L123.211 50.0344C123.263 49.6474 123.385 49.3193 123.576 49.0476C123.768 48.7773 123.994 48.5558 124.255 48.3841C124.515 48.2125 124.79 48.0857 125.082 48.0038C125.371 47.9226 125.645 47.8813 125.901 47.8813Z" fill="#FEFEFE"/>
<path d="M130.191 48.6036C129.969 48.6036 129.746 48.6314 129.525 48.6874C129.304 48.7429 129.1 48.8294 128.917 48.9448C128.734 49.0614 128.576 49.2097 128.442 49.3901C128.311 49.5704 128.227 49.7895 128.193 50.0478L127.822 52.6001C127.813 52.6776 127.809 52.7508 127.809 52.8197C127.809 52.9833 127.834 53.1287 127.886 53.2577C127.971 53.4381 128.09 53.5889 128.245 53.7089C128.399 53.8294 128.578 53.9174 128.783 53.9734C128.988 54.0294 129.201 54.057 129.422 54.057C129.636 54.057 129.853 54.0294 130.076 53.9734C130.298 53.9174 130.502 53.8294 130.69 53.7089C130.878 53.5889 131.039 53.4381 131.171 53.2577C131.303 53.077 131.386 52.8584 131.421 52.6001L131.792 50.0478C131.8 49.9702 131.805 49.8976 131.805 49.8281C131.805 49.665 131.779 49.5187 131.727 49.3901C131.642 49.2097 131.522 49.0614 131.369 48.9448C131.216 48.8294 131.033 48.7429 130.824 48.6874C130.616 48.6314 130.404 48.6036 130.191 48.6036ZM130.294 47.8813C130.609 47.8813 130.91 47.9268 131.196 48.0163C131.482 48.1071 131.732 48.2426 131.945 48.4229C132.158 48.6036 132.316 48.8309 132.419 49.1064C132.496 49.2953 132.534 49.5019 132.534 49.7248C132.534 49.8281 132.526 49.9401 132.509 50.0601L132.138 52.6522C132.086 53.0125 131.969 53.3287 131.785 53.5998C131.602 53.8706 131.38 54.0958 131.119 54.2767C130.859 54.457 130.573 54.5929 130.261 54.6823C129.95 54.7727 129.636 54.8181 129.32 54.8181C129.004 54.8181 128.701 54.7727 128.412 54.6823C128.121 54.5929 127.871 54.457 127.662 54.2767C127.452 54.0958 127.296 53.8725 127.195 53.6061C127.117 53.4171 127.079 53.211 127.079 52.9875C127.079 52.8842 127.087 52.7718 127.105 52.6522L127.476 50.0601C127.528 49.6995 127.643 49.3814 127.822 49.1064C128.001 48.8309 128.223 48.6036 128.488 48.4229C128.753 48.2426 129.04 48.1071 129.353 48.0163C129.664 47.9268 129.978 47.8813 130.294 47.8813Z" fill="#FEFEFE"/>
<path d="M139.692 49.6995C139.692 49.8028 139.684 49.9142 139.667 50.0348L139.027 54.6889H138.309L138.95 50.0348C138.958 49.9568 138.962 49.884 138.962 49.8151C138.962 49.6692 138.936 49.5311 138.885 49.4028C138.809 49.2221 138.696 49.0718 138.546 48.9513C138.396 48.8307 138.222 48.7427 138.02 48.6873C137.821 48.6313 137.613 48.6036 137.4 48.6036C137.041 48.6036 136.692 48.6466 136.35 48.7323C136.009 48.8184 135.731 48.9045 135.518 48.9901L134.736 54.6889H134.019L134.891 48.4103C135.325 48.264 135.761 48.1396 136.196 48.0358C136.632 47.933 137.068 47.8813 137.502 47.8813C137.81 47.8899 138.104 47.9391 138.386 48.0295C138.667 48.1194 138.911 48.2534 139.116 48.4294C139.321 48.6055 139.474 48.8265 139.577 49.0928C139.654 49.2737 139.692 49.476 139.692 49.6995Z" fill="#FEFEFE"/>
<path d="M144.111 51.5688C144.264 51.5688 144.414 51.5602 144.558 51.5429C144.823 51.5085 145.064 51.4354 145.282 51.324C145.499 51.212 145.683 51.0551 145.832 50.8532C145.982 50.6514 146.082 50.3917 146.133 50.0736C146.141 49.9956 146.146 49.9182 146.146 49.8412C146.146 49.678 146.121 49.5312 146.069 49.4029C145.993 49.2222 145.879 49.072 145.731 48.9514C145.581 48.8309 145.404 48.7429 145.199 48.6874C144.994 48.6314 144.78 48.6036 144.558 48.6036C144.328 48.6036 144.1 48.6358 143.874 48.6998C143.647 48.7644 143.44 48.8634 143.252 48.9968C143.064 49.1299 142.905 49.2953 142.772 49.4928C142.64 49.6909 142.557 49.9233 142.523 50.1888L142.368 51.2076C142.557 51.2846 142.772 51.356 143.015 51.4205C143.259 51.4852 143.513 51.5263 143.778 51.5429C143.888 51.5602 144 51.5688 144.111 51.5688ZM142.163 52.8579C142.163 53.0216 142.194 53.1674 142.254 53.2965C142.33 53.4683 142.445 53.6123 142.599 53.7285C142.753 53.8443 142.933 53.9284 143.137 53.98C143.342 54.0313 143.555 54.0571 143.778 54.0571C144.136 54.0571 144.484 53.9887 144.821 53.851C145.158 53.7137 145.417 53.4941 145.595 53.1932L146.184 53.5156C146.057 53.7304 145.898 53.9198 145.711 54.083C145.524 54.2465 145.317 54.3814 145.096 54.4886C144.874 54.5967 144.642 54.6781 144.398 54.7339C144.155 54.7894 143.914 54.8177 143.675 54.8177C143.359 54.8177 143.056 54.7727 142.766 54.6823C142.475 54.5924 142.226 54.457 142.017 54.2767C141.807 54.0958 141.648 53.8682 141.536 53.5932C141.468 53.4038 141.434 53.1975 141.434 52.9742C141.434 52.8709 141.443 52.7595 141.459 52.6389L141.805 50.1243C141.856 49.7464 141.976 49.4178 142.163 49.1384C142.352 48.8591 142.578 48.6247 142.842 48.4352C143.107 48.2469 143.397 48.1071 143.713 48.0163C144.029 47.9268 144.345 47.8813 144.661 47.8813C144.976 47.8813 145.278 47.9268 145.564 48.0163C145.849 48.1071 146.097 48.2426 146.307 48.4229C146.515 48.6036 146.672 48.8309 146.774 49.1064C146.842 49.2867 146.877 49.4928 146.877 49.7248C146.877 49.8368 146.868 49.9526 146.851 50.0736C146.8 50.4514 146.686 50.7762 146.511 51.047C146.337 51.3177 146.122 51.5411 145.871 51.7172C145.62 51.8932 145.338 52.0247 145.025 52.1103C144.714 52.1964 144.396 52.2433 144.072 52.2524H143.969C143.688 52.2524 143.407 52.2223 143.124 52.1619C142.817 52.1017 142.535 52.0069 142.279 51.8779L142.177 52.6389C142.168 52.7163 142.163 52.7896 142.163 52.8579Z" fill="#FEFEFE"/>
<path d="M151.332 48.5777C151.111 48.5777 150.89 48.6078 150.672 48.6676C150.454 48.728 150.257 48.8183 150.077 48.9388C149.897 49.0589 149.744 49.2073 149.617 49.3837C149.488 49.5598 149.411 49.7684 149.385 50.0089L149.014 52.6522C148.997 52.7468 148.988 52.8367 148.988 52.9228C148.988 53.0521 149.006 53.1673 149.04 53.2706C149.108 53.46 149.213 53.6194 149.354 53.748C149.494 53.8771 149.668 53.9733 149.873 54.0379C150.077 54.1025 150.303 54.1345 150.551 54.1345C150.849 54.1259 151.16 54.0876 151.48 54.0187C151.799 53.9498 152.113 53.8427 152.42 53.6964L153.1 48.9131C152.911 48.827 152.66 48.7494 152.344 48.6811C152.028 48.6122 151.69 48.5777 151.332 48.5777ZM150.129 56.8548C150.367 56.8548 150.6 56.8246 150.827 56.7648C151.052 56.7046 151.259 56.617 151.447 56.5004C151.635 56.3846 151.793 56.2362 151.921 56.0555C152.049 55.8752 152.134 55.6604 152.177 55.4112L152.331 54.4181C152.033 54.5646 151.73 54.6679 151.422 54.7277C151.114 54.7879 150.808 54.818 150.5 54.818C150.184 54.818 149.883 54.7731 149.597 54.6823C149.311 54.5928 149.063 54.4569 148.854 54.2766C148.645 54.0957 148.485 53.8724 148.374 53.6059C148.305 53.4171 148.272 53.2152 148.272 52.9999C148.272 52.8884 148.28 52.776 148.297 52.6645L148.656 50.0218C148.708 49.6692 148.823 49.3598 149.002 49.0934C149.18 48.827 149.396 48.6036 149.648 48.4228C149.9 48.2424 150.18 48.1071 150.487 48.0167C150.794 47.9268 151.102 47.8813 151.408 47.8813C151.708 47.8813 152.083 47.9243 152.535 48.0104C152.988 48.0961 153.432 48.2386 153.868 48.4356L152.882 55.3978C152.83 55.759 152.717 56.0731 152.542 56.3396C152.367 56.606 152.153 56.8246 151.902 56.9973C151.651 57.169 151.368 57.2957 151.057 57.3776C150.746 57.4589 150.427 57.5001 150.102 57.5001C149.676 57.5001 149.279 57.4263 148.912 57.2804C148.545 57.1345 148.254 56.9237 148.042 56.6486L148.591 56.1971C148.728 56.4122 148.937 56.5759 149.219 56.6874C149.501 56.7988 149.804 56.8548 150.129 56.8548Z" fill="#FEFEFE"/>
<path d="M158.989 47.2626H158.247L159.322 45.8057H160.347L158.989 47.2626ZM158.528 48.6038C158.307 48.6038 158.084 48.6316 157.863 48.6876C157.641 48.7431 157.437 48.8292 157.254 48.945C157.071 49.0612 156.913 49.2094 156.78 49.3897C156.648 49.5706 156.565 49.7897 156.531 50.0474L156.16 52.6003C156.15 52.6773 156.147 52.751 156.147 52.8199C156.147 52.983 156.172 53.1289 156.223 53.2581C156.308 53.4384 156.428 53.5891 156.583 53.709C156.736 53.8296 156.916 53.9176 157.12 53.9736C157.325 54.0296 157.538 54.0572 157.76 54.0572C157.974 54.0572 158.191 54.0296 158.414 53.9736C158.635 53.9176 158.84 53.8296 159.028 53.709C159.216 53.5891 159.376 53.4384 159.508 53.2581C159.641 53.0772 159.723 52.8581 159.758 52.6003L160.129 50.0474C160.138 49.9704 160.143 49.8972 160.143 49.8279C160.143 49.6652 160.116 49.5189 160.065 49.3897C159.98 49.2094 159.86 49.0612 159.707 48.945C159.553 48.8292 159.372 48.7431 159.162 48.6876C158.954 48.6316 158.742 48.6038 158.528 48.6038ZM158.632 47.8815C158.946 47.8815 159.248 47.927 159.534 48.0165C159.819 48.1073 160.069 48.2427 160.283 48.4231C160.496 48.6038 160.654 48.8311 160.757 49.1066C160.834 49.2955 160.871 49.5021 160.871 49.725C160.871 49.8279 160.863 49.9403 160.846 50.0603L160.475 52.6524C160.424 53.0127 160.306 53.3289 160.123 53.6C159.939 53.8703 159.717 54.096 159.456 54.2769C159.197 54.4572 158.91 54.5926 158.599 54.6824C158.288 54.7729 157.974 54.8179 157.658 54.8179C157.342 54.8179 157.039 54.7729 156.749 54.6824C156.458 54.5926 156.209 54.4572 156 54.2769C155.79 54.096 155.634 53.8722 155.533 53.6057C155.455 53.4173 155.416 53.2112 155.416 52.9873C155.416 52.884 155.425 52.772 155.442 52.6524L155.814 50.0603C155.866 49.6997 155.98 49.3816 156.16 49.1066C156.338 48.8311 156.561 48.6038 156.825 48.4231C157.09 48.2427 157.377 48.1073 157.69 48.0165C158.002 47.927 158.315 47.8815 158.632 47.8815Z" fill="#FEFEFE"/>
<path d="M165.533 48.6036C165.311 48.6036 165.088 48.6314 164.868 48.6874C164.646 48.7429 164.44 48.8294 164.253 48.9448C164.065 49.0614 163.907 49.2097 163.779 49.3901C163.651 49.5704 163.569 49.7808 163.536 50.0215L163.177 52.6389C163.168 52.7169 163.165 52.7896 163.165 52.8584C163.165 53.0043 163.19 53.1415 163.241 53.2708C163.318 53.4515 163.43 53.5998 163.58 53.7156C163.73 53.8318 163.909 53.9174 164.118 53.9734C164.327 54.0294 164.543 54.057 164.764 54.057C164.952 54.057 165.146 54.0379 165.342 53.9993C165.538 53.9609 165.719 53.9026 165.885 53.8251C166.052 53.748 166.201 53.6468 166.335 53.5219C166.466 53.3975 166.57 53.2449 166.648 53.0645L167.263 53.3611C167.143 53.6103 166.987 53.8251 166.795 54.0054C166.603 54.1863 166.392 54.3365 166.16 54.457C165.931 54.5776 165.686 54.6679 165.431 54.7277C165.175 54.788 164.919 54.8181 164.663 54.8181C164.355 54.8181 164.057 54.7727 163.766 54.6823C163.476 54.5929 163.226 54.457 163.017 54.2767C162.808 54.0958 162.648 53.8725 162.537 53.6061C162.468 53.4171 162.435 53.211 162.435 52.9875C162.435 52.8842 162.443 52.7718 162.459 52.6522L162.819 50.0478C162.87 49.6866 162.988 49.3704 163.171 49.0998C163.354 48.8294 163.577 48.6036 163.837 48.4229C164.097 48.2426 164.385 48.1071 164.701 48.0163C165.017 47.9268 165.328 47.8813 165.636 47.8813C166.097 47.8813 166.52 47.9761 166.903 48.165C167.287 48.3544 167.565 48.6424 167.737 49.0288L167.083 49.4158C166.971 49.1408 166.774 48.9366 166.488 48.8031C166.201 48.6702 165.883 48.6036 165.533 48.6036Z" fill="#FEFEFE"/>
<path d="M170.501 45.793C170.672 45.793 170.809 45.8532 170.911 45.9733C170.997 46.0679 171.039 46.1794 171.039 46.3086C171.039 46.3425 171.035 46.3779 171.026 46.4114C171.009 46.5841 170.932 46.7295 170.796 46.85C170.659 46.97 170.506 47.0304 170.334 47.0304C170.163 47.0304 170.028 46.97 169.925 46.85C169.84 46.7471 169.798 46.6266 169.798 46.4894V46.4114C169.822 46.2397 169.903 46.0938 170.04 45.9733C170.177 45.8532 170.331 45.793 170.501 45.793ZM170.578 48.0109L169.644 54.6894H168.927L169.86 48.0109H170.578Z" fill="#FEFEFE"/>
<path d="M175.201 48.6036C174.979 48.6036 174.757 48.6314 174.535 48.6874C174.314 48.7429 174.11 48.8294 173.927 48.9448C173.744 49.0614 173.586 49.2097 173.452 49.3901C173.321 49.5704 173.237 49.7895 173.204 50.0478L172.832 52.6001C172.823 52.6776 172.819 52.7508 172.819 52.8197C172.819 52.9833 172.844 53.1287 172.896 53.2577C172.981 53.4381 173.1 53.5889 173.255 53.7089C173.409 53.8294 173.588 53.9174 173.793 53.9734C173.998 54.0294 174.211 54.057 174.432 54.057C174.646 54.057 174.864 54.0294 175.086 53.9734C175.308 53.9174 175.512 53.8294 175.701 53.7089C175.888 53.5889 176.049 53.4381 176.181 53.2577C176.313 53.077 176.396 52.8584 176.431 52.6001L176.802 50.0478C176.81 49.9702 176.815 49.8976 176.815 49.8281C176.815 49.665 176.789 49.5187 176.737 49.3901C176.652 49.2097 176.532 49.0614 176.379 48.9448C176.226 48.8294 176.044 48.7429 175.834 48.6874C175.626 48.6314 175.414 48.6036 175.201 48.6036ZM175.304 47.8813C175.619 47.8813 175.921 47.9268 176.207 48.0163C176.492 48.1071 176.742 48.2426 176.955 48.4229C177.168 48.6036 177.327 48.8309 177.429 49.1064C177.506 49.2953 177.544 49.5019 177.544 49.7248C177.544 49.8281 177.536 49.9401 177.519 50.0601L177.148 52.6522C177.096 53.0125 176.979 53.3287 176.796 53.5998C176.612 53.8706 176.39 54.0958 176.129 54.2767C175.869 54.457 175.583 54.5929 175.272 54.6823C174.96 54.7727 174.646 54.8181 174.33 54.8181C174.014 54.8181 173.711 54.7727 173.422 54.6823C173.131 54.5929 172.882 54.457 172.672 54.2767C172.462 54.0958 172.307 53.8725 172.205 53.6061C172.127 53.4171 172.089 53.211 172.089 52.9875C172.089 52.8842 172.098 52.7718 172.115 52.6522L172.486 50.0601C172.538 49.6995 172.653 49.3814 172.832 49.1064C173.011 48.8309 173.234 48.6036 173.498 48.4229C173.763 48.2426 174.05 48.1071 174.363 48.0163C174.674 47.9268 174.988 47.8813 175.304 47.8813Z" fill="#FEFEFE"/>
<path d="M69.529 0.500488C67.7251 0.500488 66.3973 0.904139 65.5459 1.71198C64.6951 2.51847 64.0846 3.77945 63.7178 5.4952L60.4608 21.0289C60.2935 21.8704 60.2108 22.5266 60.2108 22.9973C60.2108 24.0386 60.5192 24.8049 61.1372 25.2913C61.7553 25.7787 62.7663 26.0227 64.1681 26.0227H66.573L70.1798 8.0169C70.3945 7.03157 70.8639 6.61016 71.7832 6.58765H82.1532L83.4348 0.500488H69.529Z" fill="#FEFEFE"/>
<path d="M136.887 10.9415H123.161C122.341 10.9415 122.029 10.5823 122.158 9.68064L122.502 7.94957C122.743 6.84085 123.223 6.58771 124.155 6.58771H141.438L142.748 0.5H121.808C120.037 0.5 118.735 0.862567 117.9 1.58485C117.065 2.30904 116.498 3.42603 116.197 4.93948L114.795 11.7495C114.694 12.1522 114.644 12.5225 114.644 12.8587C114.644 13.6321 114.903 14.2454 115.42 14.6998C115.938 15.1532 116.765 15.381 117.9 15.381H131.476C132.306 15.3685 132.608 15.6383 132.428 16.4399L131.906 18.7245C131.671 19.5147 131.317 19.9346 130.402 19.9346H113.019C113.019 19.9346 112.556 22.5749 112.556 22.9973C112.556 24.0386 112.865 24.8044 113.483 25.2915C114.099 25.7778 115.107 26.0208 116.504 26.0223V26.0229H132.929C134.699 26.0229 136.002 25.6622 136.837 24.939C137.67 24.2161 138.256 23.0983 138.59 21.5843L140.093 14.5223C140.125 14.3548 140.15 14.1875 140.168 14.0191C140.184 13.8503 140.193 13.6828 140.193 13.514C140.193 12.7405 139.934 12.1187 139.417 11.6485C138.898 11.1778 138.055 10.9415 136.887 10.9415Z" fill="#00B9CF"/>
<path d="M181.755 7.94943C181.996 6.84071 182.475 6.5877 183.407 6.5877H200.69L202 0.5H181.061C179.29 0.5 177.988 0.862567 177.153 1.58485C176.318 2.30904 175.75 3.42589 175.45 4.93934L174.047 11.7493C173.946 12.152 173.896 12.5223 173.896 12.8586C173.896 13.632 174.155 14.2453 174.673 14.6996C175.191 15.1532 176.017 15.3808 177.153 15.3808H190.729C191.559 15.3684 191.86 15.6382 191.681 16.4398L191.158 18.7243C190.923 19.5146 190.57 19.9345 189.655 19.9345H172.272C172.272 19.9345 171.809 22.5749 171.809 22.9968C171.809 24.0386 172.117 24.8044 172.735 25.2908C173.352 25.7773 174.36 26.0208 175.757 26.0222V26.0227H192.182C193.952 26.0227 195.254 25.6621 196.089 24.9388C196.923 24.2161 197.508 23.0978 197.842 21.5843L199.345 14.5223C199.379 14.3548 199.403 14.1874 199.421 14.0186C199.437 13.8498 199.445 13.6827 199.445 13.5139C199.445 12.7405 199.186 12.1185 198.669 11.6479C198.151 11.1777 197.308 10.9415 196.139 10.9415H182.414C181.594 10.9415 181.282 10.5818 181.411 9.6805L181.755 7.94943Z" fill="#00B9CF"/>
<path d="M165.641 0.500488L161.556 19.935H150.785C149.822 19.935 149.464 19.4558 149.683 18.4718L153.468 0.500488H146.455L142.146 21.0294C141.979 21.8704 141.896 22.5266 141.896 22.9973C141.896 24.0391 142.205 24.8049 142.823 25.2913C143.441 25.7787 144.451 26.0227 145.854 26.0227H160.281L159.58 29.1506C159.446 29.7221 159.271 30.1087 159.054 30.3104C158.836 30.5129 158.444 30.6137 157.877 30.6137H141.093C141.093 30.6137 140.609 33.2317 140.609 33.7023C140.609 34.7437 140.916 35.5099 141.535 35.9964C142.116 36.4551 143.058 36.6895 144.333 36.7162H160.181C162.017 36.7162 163.37 36.3126 164.239 35.5061C165.106 34.6982 165.724 33.4368 166.165 31.3848L172.706 0.500624H165.641V0.500488Z" fill="#00B9CF"/>
<path d="M49.9687 19.9346L39.0762 19.9408C38.1483 19.9346 37.7826 19.5644 37.9745 18.5786L40.2207 7.99987C40.4591 7.02593 41.0439 6.58784 41.8744 6.58784H52.7944L49.9687 19.9346ZM39.5218 0.5C37.7189 0.5 36.391 0.904193 35.5397 1.71163C34.6879 2.51866 34.0784 3.77951 33.7106 5.49485L30.4551 21.0291C30.2873 21.8699 30.2036 22.5263 30.2036 22.9969C30.2036 24.0386 30.513 24.8044 31.1311 25.2909C31.7487 25.7784 32.7591 26.0229 34.162 26.0229H43.4592H46.1847H48.649L47.9882 29.1506C47.8546 29.7217 47.6788 30.1082 47.4627 30.3101C47.2451 30.5124 46.8526 30.6134 46.285 30.6134H29.3528C29.3528 30.6134 28.8645 33.2312 28.8645 33.702C28.8645 34.7433 29.1733 35.5095 29.7909 35.996C30.3718 36.4547 31.314 36.6892 32.589 36.7159H48.5896C50.4258 36.7159 51.7701 36.3122 52.6221 35.5057C53.4733 34.6978 54.0824 33.4369 54.556 31.3902L61.0964 0.500136H39.5218V0.5Z" fill="#FEFEFE"/>
<path d="M20.0386 19.9705H8.31569C7.681 19.9705 7.36413 19.7523 7.36413 19.3152C7.36413 19.2142 7.37221 19.1133 7.38972 19.0124C7.40588 18.9114 7.43106 18.777 7.46432 18.6086L8.01538 15.9353C8.11571 15.3981 8.26626 15.0451 8.46678 14.8762C8.66676 14.7088 9.00033 14.6236 9.46871 14.6236H21.1732L20.0386 19.9705ZM30.2575 3.52739C30.2575 2.48552 29.9572 1.7212 29.3558 1.23186C28.7553 0.745906 27.7192 0.500488 26.2508 0.500488H5.51084L4.2614 6.58779H21.444C22.4696 6.58779 22.7699 7.06804 22.596 8.00022L22.0929 10.2901L6.71328 10.2867C5.91134 10.2867 5.22629 10.3618 4.65907 10.5134C4.09132 10.6646 3.60719 10.9257 3.20629 11.2951C2.80525 11.6658 2.47127 12.1693 2.20436 12.8084C1.93638 13.4475 1.70313 14.2382 1.50261 15.179L0.25075 21.2313C0.0830895 22.0058 0 22.6267 0 23.0983C0 24.0736 0.283609 24.8049 0.851769 25.2914C1.41899 25.7793 2.33728 26.0228 3.60719 26.0228H25.6992L30.0072 5.4952C30.1739 4.65387 30.2575 3.99897 30.2575 3.52739Z" fill="#FEFEFE"/>
<path d="M105.359 8.00022L103.85 15.0901L102.801 19.9332C101.862 19.9341 101.307 19.9346 101.283 19.9346H91.3637C90.6286 19.9346 90.1578 19.5735 90.3617 18.5728L91.0188 15.3919L92.5851 8.00022C92.7974 7.0431 93.2572 6.58779 94.1875 6.58779H104.107C105.009 6.58779 105.535 7.02059 105.359 8.00022ZM113.138 3.52699C113.138 2.48511 112.837 1.7208 112.236 1.23186C111.635 0.745499 110.599 0.500488 109.13 0.500488H91.8971C90.0937 0.500488 88.7661 0.904274 87.9143 1.71212C87.0633 2.5186 86.4534 3.77945 86.0866 5.4952L82.8295 21.029C82.6623 21.8704 82.5796 22.5266 82.5796 22.9974C82.5796 24.0387 82.888 24.8045 83.506 25.2909C84.1235 25.7789 85.135 26.0228 86.5369 26.0228H103.77C105.606 26.0228 106.951 25.6201 107.803 24.8121C108.654 24.0056 109.263 22.7448 109.631 21.029L112.887 5.4952C113.054 4.65387 113.138 3.99897 113.138 3.52699Z" fill="#FEFEFE"/>
</g>
<defs>
<clipPath id="clip0_1458_601">
<rect width="202" height="57" fill="white" transform="translate(0 0.5)"/>
</clipPath>
</defs>
</svg>
